<?xml version="1.0" encoding="utf-8"?>
<!-- Generator: Adobe Illustrator 22.0.0, SVG Export Plug-In . SVG Version: 6.00 Build 0)  -->
<svg version="1.1" xmlns="http://www.w3.org/2000/svg" xmlns:xlink="http://www.w3.org/1999/xlink" x="0px" y="0px"
	 viewBox="0 0 500 500" style="enable-background:new 0 0 500 500;" xml:space="preserve">
<style type="text/css">
	.st0{fill:#723C07;}
	.st1{fill:#603D20;}
	.st2{fill:#664B36;}
	.st3{fill:#775D4B;}
	.st4{fill:#84330F;stroke:#84330F;stroke-miterlimit:10;}
	.st5{fill:#FFFFFF;stroke:#FFFFFF;stroke-miterlimit:10;}
	.st6{fill:#FFCE00;stroke:#FFFFFF;stroke-miterlimit:10;}
</style>
<g id="Layer_1">
	<g>
		<rect class="st0" width="500" height="129"/>
	</g>
	<g>
		<rect y="123" class="st1" width="500" height="129"/>
	</g>
	<g>
		<rect y="246" class="st2" width="500" height="129"/>
	</g>
	<g>
		<rect y="369" class="st3" width="500" height="131"/>
	</g>
</g>
<g id="Layer_2">
	<g>
		<rect x="90" y="55" class="st4" width="281" height="85"/>
		<rect x="90" y="140" class="st4" width="281" height="317"/>
		<rect x="371.5" y="167.5" class="st4" width="44" height="44"/>
		<rect x="415.5" y="167.5" class="st4" width="44" height="44"/>
		<rect x="415.5" y="211.5" class="st4" width="44" height="44"/>
		<rect x="415.5" y="255.5" class="st4" width="44" height="44"/>
		<rect x="415.5" y="299.5" class="st4" width="44" height="44"/>
		<rect x="415.5" y="343.5" class="st4" width="44" height="44"/>
		<rect x="371.5" y="343.5" class="st4" width="44" height="44"/>
		<rect x="130.5" y="382.5" class="st4" width="24" height="24"/>
		<rect x="202.5" y="297.5" class="st4" width="24" height="24"/>
		<rect x="146.5" y="233.5" class="st4" width="24" height="24"/>
		<rect x="248.5" y="140.5" class="st4" width="24" height="24"/>
		<rect x="311.5" y="140.5" class="st4" width="24" height="24"/>
		<rect x="248.5" y="164.5" class="st4" width="24" height="24"/>
		<rect x="248.5" y="188.5" class="st4" width="24" height="24"/>
		<rect x="311.5" y="164.5" class="st4" width="24" height="24"/>
		<rect x="248.5" y="211.5" class="st4" width="24" height="24"/>
		<rect x="248.5" y="236.5" class="st4" width="24" height="24"/>
		<rect x="311.5" y="188.5" class="st4" width="24" height="24"/>
	</g>
</g>
<g id="Layer_3">
	<rect x="78" y="45" class="st5" width="281" height="85"/>
	<rect x="78" y="130" class="st6" width="281" height="317"/>
	<rect x="359.5" y="157.5" class="st5" width="44" height="44"/>
	<rect x="403.5" y="157.5" class="st5" width="44" height="44"/>
	<rect x="403.5" y="201.5" class="st5" width="44" height="44"/>
	<rect x="403.5" y="245.5" class="st5" width="44" height="44"/>
	<rect x="403.5" y="289.5" class="st5" width="44" height="44"/>
	<rect x="403.5" y="333.5" class="st5" width="44" height="44"/>
	<rect x="359.5" y="333.5" class="st5" width="44" height="44"/>
	<rect x="118.5" y="372.5" class="st5" width="24" height="24"/>
	<rect x="190.5" y="287.5" class="st5" width="24" height="24"/>
	<rect x="134.5" y="223.5" class="st5" width="24" height="24"/>
	<rect x="236.5" y="130.5" class="st5" width="24" height="24"/>
	<rect x="299.5" y="130.5" class="st5" width="24" height="24"/>
	<rect x="236.5" y="154.5" class="st5" width="24" height="24"/>
	<rect x="236.5" y="178.5" class="st5" width="24" height="24"/>
	<rect x="299.5" y="154.5" class="st5" width="24" height="24"/>
	<rect x="236.5" y="201.5" class="st5" width="24" height="24"/>
	<rect x="236.5" y="226.5" class="st5" width="24" height="24"/>
	<rect x="299.5" y="178.5" class="st5" width="24" height="24"/>
	<rect x="77.5" y="45.5" class="st5" width="24" height="401"/>
	<rect x="85.5" y="421.5" class="st5" width="273" height="24"/>
	<rect x="334.5" y="45.5" class="st5" width="24" height="400"/>
</g>
</svg>
